<?xml version="1.0" encoding="utf-8"?>
<!-- Generator: Adobe Illustrator 16.0.0, SVG Export Plug-In . SVG Version: 6.00 Build 0)  -->
<!DOCTYPE svg PUBLIC "-//W3C//DTD SVG 1.1//EN" "http://www.w3.org/Graphics/SVG/1.1/DTD/svg11.dtd">
<svg version="1.1" id="Layer_1" xmlns="http://www.w3.org/2000/svg" xmlns:xlink="http://www.w3.org/1999/xlink" x="0px" y="0px"
	xml:space="preserve" viewBox="0 0 121.5 144.342">
<path fill="#E12A27" d="M55.427,52.978c1.461-3.366,3.346-5.014,3.346-5.014c3.793-3.511,3.11-6.6,3.11-6.6
	c-1.077,3.209-3.63,5.06-3.63,5.06C55.409,49.105,55.427,52.978,55.427,52.978 M59.243,39.179l-0.966,1.121
	c0,0,0.636,2.111-0.271,5.208C58.007,45.507,59.665,42.772,59.243,39.179 M47.861,66.8c-0.565,0.528-0.733,1.461-0.875,2.273
	c-0.104,0.556-0.094,1.149-0.293,1.618c-0.026-0.204-0.044-0.32-0.116-0.606c-0.274-1.032-0.613-2.307-1.322-2.832
	c-0.332-0.187-0.485,1.461-0.367,1.677c0.182,0.278,0.496,0.312,0.75,0.216c0.613,0.826,0.734,2.081,1.023,3.153l0.114,0.004
	c0.284-1.309,0.293-2.58,0.664-3.798c0.08-0.337,0.242-0.171,0.381-0.075c0.234,0.216,0.445,0.406,0.451,0.778
	c0.231-0.518,0.687-1.216,0.373-1.906C48.458,66.901,48.042,66.644,47.861,66.8 M45.856,76.641c0.38,2.659,1.161,5.164,1.168,7.955
	c0.033,0.028,0.025,0.06,0.074-0.029c0.443-3.151-0.624-5.95-0.915-8.944c0.456-0.612,1.262-0.444,1.89-0.45
	c0.129-0.287,0.23-0.641,0.2-1.017c-0.427-0.616-0.927-1.423-1.608-1.419c-0.242,0.01-0.479,0.496-0.607,0.865
	c-0.116,0.338-0.069,0.787-0.061,1.059c0.139-0.27,0.125-0.622,0.407-0.764c0.257-0.099,0.589-0.004,0.752,0.229
	c-0.132,0.104-0.288,0.088-0.465,0.093C45.805,74.341,45.843,75.764,45.856,76.641 M84.859,71.299
	c-0.09-11.609-6.383-24.869-6.383-24.869c-3.123-6.728-13.443-27.174-13.443-27.174l1.52,42.853c1.41-3.197,1.326-7.546,1.326-7.546
	c0.094-4.664-1.107-23.71-1.107-23.71c18.166,30.062,15.857,44.965,15.857,44.965C81.261,91.52,72.541,97.842,72.541,97.842
	c-14.379,9.902-25.534-8.93-25.534-8.93c11.26,23.615,24.338,14.498,24.338,14.498C86.017,93.528,84.859,71.299,84.859,71.299
	 M63.728,108.944c0.229-0.078,0.471,0.031,0.662,0.271c0.008,0.012,0.021,0.031,0.035,0.039c0.008,0.02,0.023,0.033,0.031,0.049
	c0.088,0.127,0.141,0.273,0.189,0.453c0.021,0.07,0.039,0.141,0.051,0.227c0.166,0.781,0.109,1.674,0.15,2.43
	c0.039,0.725,0.031,1.332,0.076,2.119l0.096-0.18c0.09-1.227,0.145-2.457,0.084-3.697c-0.102-1.045-0.238-2.367-0.98-3.125
	c-0.225-0.217-0.553-0.447-0.828-0.217c-0.672,0.785-0.199,2.131,0.016,3.219c0.074,0.336,0.059-0.008,0.049-0.115
	c-0.008-0.02-0.049-0.262-0.049-0.283C63.242,109.469,63.375,109.065,63.728,108.944 M43.729,84.668
	c-6.301-15.117,4.402-32.508,9.607-40.263c6.354-9.046,6.74-8.815,9.104-13.349c2.041-3.931,1.816-7.625,0.738-11.812
	c0,0-0.365,2.331-2.375,4.702c-2.042,2.413-2.725,2.726-4.313,3.634c0.14,1.038,0.604,1.509,0.55,4.441
	c-0.004,0.16-0.021,0.475-0.065,0.709c-1.345,2.089-6.334,7.641-10.479,15.709c-3.608,7.032-4.978,11.48-5.794,15.782
	c-1.509,7.992-0.891,13.315,1.789,21.423c8.605,22.006,18.979,23.836,22.43,33.621c0.365,0.859,0.264,0.781,0.516,1.189
	c-0.49-2.062-1.002-4.148-2.381-6.473C56.571,102.887,51.456,103.209,43.729,84.668 M62.46,50.309
	c0.127-1.073,0.541-2.153,0.799-3.112c0.248-0.926,0.508-1.676,0.766-2.679l-0.184,0.164c-0.59,1.488-1.143,2.983-1.574,4.554
	c-0.299,1.36-0.676,3.079-0.143,4.441c0.17,0.395,0.459,0.865,0.856,0.729c1.08-0.592,1.08-2.54,1.273-4.008
	c0.055-0.461-0.076-0.032-0.107,0.107c0,0.03-0.049,0.365-0.055,0.391c-0.188,0.864-0.496,1.292-0.949,1.246
	c-0.287-0.039-0.52-0.31-0.639-0.713c-0.008-0.02-0.018-0.054-0.021-0.07c-0.004-0.021-0.021-0.052-0.021-0.08
	c-0.047-0.2-0.049-0.422-0.035-0.661C62.435,50.517,62.441,50.408,62.46,50.309 M49.036,58.628c0.125-1.07,0.545-2.149,0.801-3.113
	c0.246-0.927,0.508-1.667,0.764-2.682L50.419,53c-0.59,1.481-1.148,2.985-1.574,4.552c-0.297,1.361-0.678,3.081-0.145,4.446
	c0.178,0.389,0.454,0.867,0.855,0.725c1.076-0.59,1.085-2.538,1.271-4.009c0.055-0.46-0.074-0.03-0.1,0.111
	c0,0.03-0.057,0.36-0.064,0.387c-0.185,0.867-0.494,1.295-0.945,1.244c-0.284-0.03-0.521-0.305-0.641-0.71
	c-0.002-0.017-0.012-0.052-0.021-0.073c-0.004-0.018-0.02-0.047-0.02-0.072c-0.041-0.206-0.051-0.428-0.035-0.663
	C49.011,58.833,49.016,58.727,49.036,58.628 M63.183,64.027c-0.34,0-0.422,1.153-0.369,1.678c0.127,0.384,0.492,0.308,0.754,0.209
	c0.605,0.826,0.766,2.182,1.062,3.257c0.346-1.466,0.355-2.677,0.732-3.897c0.082-0.334,0.299-0.3,0.449-0.123
	c0.297,0.317,0.373,0.453,0.383,0.831c0.215,0.153,0.688-1.213,0.365-1.911c-0.141-0.331-0.396-0.606-0.775-0.502
	c-0.379,0.134-0.73,1.465-0.873,2.276c-0.105,0.562-0.152,1.168-0.293,1.62c-0.027-0.209-0.053-0.367-0.115-0.609
	C64.232,65.828,63.886,64.546,63.183,64.027 M68.75,64.538l-0.998,1.72c0,0,1.297,2.545,0.828,6.793
	C68.58,73.05,70.103,69.049,68.75,64.538 M66.554,77.487c0.068,0.717,0.604,1.033,1.086,0.89c0.4-0.144,0.768-0.551,1.004-0.931
	c-0.064,0.287,0.068,0.578,0.213,0.668c0.455,0.216,1.25,0.525,1.627,0.016c0.682-1.292,0.41-2.559,0.168-4.061
	c0,0-0.02-0.262-0.127-0.994c-0.363,0.508-0.453,1.068-0.449,1.642c0.035,0.787,0.268,1.609,0.215,2.355
	c-0.395,0.038-0.834-0.017-1.084-0.44c-0.053-1.089-0.18-2.168-0.18-3.318c-0.346,0.233-0.537,0.947-0.631,1.4l0.053-0.06
	c0.301,0.506,0.18,1.325,0.191,1.942c-0.344,0.51-0.885,0.709-1.287,0.45c-0.799-0.86,0.121-2.532,0.07-3.618
	c-0.393,0.12-0.824,0.889-0.705,1.413l0.127-0.103C66.853,75.569,66.49,76.629,66.554,77.487 M61.008,96.622
	c0.29-0.877-0.063-2.127-0.504-2.984c-0.249-0.604-0.626-1.266-0.634-1.922c0.221-0.455,0.487-0.195,0.71-0.09
	c0.069-0.076,0-0.172,0.037-0.232c-0.061-0.396-0.133-0.955-0.483-1.07c-0.284-0.066-0.432,0.232-0.524,0.512
	c-0.172,1.191,0.47,2.574,0.983,3.533c0.219,0.516,0.172,1.041-0.013,1.51c-0.812-2.182-1.626-2.469-2.032-2.707
	c-0.381-0.148-0.732-0.262-0.782,0.232c0.017,0.467,0.165,1.352,0.743,1.523c0.216,0.061,0.289-0.203,0.312-0.398
	c0.422-0.305,1.256,0.938,1.727,1.426c-0.409,1.012-1.379,1.844-1.494,2.135C59.054,98.088,60.614,97.436,61.008,96.622
	 M54.624,81.973c-0.189-0.131-0.293-0.705-0.414-0.961c-1.498-4.83-0.84-11.111-0.567-12.697c0.265-1.607,0.487-2.226,0.487-2.226
	c0.343,0.799,0.697,1.595,1.054,2.416c1.097,2.554,2.028,5.237,1.433,8.401c-0.248,2.085-0.969,3.18-1.691,4.527
	C54.827,81.61,54.729,81.792,54.624,81.973 M72.609,88.543c1.846,0.125,2.791-3.104,2.791-3.104
	c3.227-2.762,3.686-11.025,3.686-11.025c0.65-14.273-8.535-27.043-8.535-27.043l1.549,26.029c0.998-3.552,0.898-5.695,0.898-5.695
	c0.047-2.281-0.805-12.103-0.805-12.103c4.621,7.08,5.459,14.248,5.459,14.248c0.74,6.055-1.834,9.759-1.834,9.759
	c0.068-1.411,0.043-2.631-0.102-3.086c-0.197-0.618-0.357-0.137-0.357-0.137c0.189,5.662-2.154,7.211-2.154,7.211
	c0.064-1.061,0.041-2.201-0.053-2.687c-0.143-0.677-0.408-0.369-0.408-0.369c-0.027,5.241-2.727,6.099-2.727,6.099
	c0.387-0.832,0.623-2.369,0.467-3.072c-0.121-0.551-0.328-0.305-0.328-0.305c-0.373,3.978-2.984,4.477-2.984,4.477
	c-5.195,0.857-4.893-9.743-4.893-9.743c0.443-14.61-3.705-27.453-3.705-27.453l-1.489,2.985c2.158,7.822,3.218,21.008,3.218,21.008
	l-0.119,3.97c-0.05,2.558-1.052,6.181-2.743,6.582c-0.611,0.101-1.22-0.394-1.498-1.08c1.381-3.435,1.816-7.403,1.882-11.643
	c0-4.098-1.173-7.405-2.319-11.024c-0.287-0.909-0.434-1.429-0.826-2.719c-0.191-0.6-0.459-1.487-0.637-2.027
	c-0.315,3.331-0.742,5.505-1.211,8.721c-0.674,4.007-1.098,11.302-0.41,15.867c0.195,0.939,0.467,2.903,0.365,2.937
	c-1.553,2.128-4.394,3.306-6.291,3.514c0.539,0.558,5.022,0.749,7.071-0.511c0.272,0.889,0.702,1.576,1.207,2.143
	c0.429,0.453,0.92,0.811,1.435,1.078c1.172,0.529,2.263,0.15,3.119-1.217c0.459-0.574,1.083-2.245,1.441-3.531
	c1.78,11.033,6.928,5.41,6.928,5.41C71.138,92.303,72.609,88.543,72.609,88.543 M68.867,92.827c0,0-0.693,2.586-2.205,1.416
	c0,0-1.135-0.754-2.527,2.93c0,0-0.955,2.008-2.071,2.342c0,0,1.573,0.23,3.168-2.939c0,0,0.482-0.908,1.355-0.643
	c0,0,1.164,0.633,1.885-0.68c0,0,2.098,0.801,1.705-3.018c0,0-0.27,1.75-1.287,1.414C68.89,93.649,68.919,93.362,68.867,92.827"/>
<path fill="#717271" d="M75.267,19.054c0,0.005,0,0.005-0.008,0.015c-0.049,0-0.131-0.037-0.205-0.093
	c-0.09-0.06-0.176-0.128-0.221-0.172c-0.016,0-0.008,0.006-0.008-0.01h0.008c0-0.026,0.143-0.071,0.164-0.08h0.057
	c0.156,0.036,0.213,0.177,0.225,0.34H75.267z M75.3,18.334c-0.068-0.033-0.139-0.033-0.227-0.033c-0.012,0-0.012,0.005-0.012,0.005
	c-0.098,0.038-0.178,0.085-0.25,0.157c-0.053,0.047-0.102,0.097-0.158,0.144c-0.041,0.028-0.102,0-0.141,0.05
	c-0.039,0.047-0.047,0.093-0.078,0.147c-0.051,0.112-0.109,0.217-0.158,0.333c-0.133,0.253-0.393,0.478-0.633,0.631
	c-0.514,0.327-1.045,0.615-1.611,0.834c-0.225,0.074-0.441,0.159-0.668,0.24c-0.094,0.039-0.215,0.047-0.289,0.126h-0.02
	c0,0.028,0.123,0.005,0.143,0.005c0.418-0.015,0.814-0.131,1.219-0.18c0.32-0.041,0.572-0.203,0.828-0.366
	c0.207-0.121,0.404-0.255,0.59-0.406c0.107-0.099,0.238-0.184,0.336-0.312c0.131-0.158,0.236-0.447,0.275-0.655h0.027
	c0,0.015,0.059,0.052,0.078,0.078c0.078,0.084,0.305,0.29,0.502,0.37c0.107,0.051,0.205,0.073,0.268,0.016
	C75.607,19.275,75.642,18.539,75.3,18.334 M78.07,15.1v0.055c-0.213,0-0.555-0.161-0.898-0.37c-0.373-0.25-0.748-0.547-0.893-0.737
	c-0.066,0-0.051,0.013-0.051-0.05h0.051c0-0.098,0.344-0.349,0.643-0.368c0.09,0,0.168,0.008,0.25,0.027
	c0.648,0.138,0.908,0.724,0.949,1.443H78.07z M68.033,15.211c-1.025,0.264-2.113,0.438-3.387,0.576c0,0,0.467-0.576,1.156-1.314
	c0.455-0.515,1.191-1.509,2.23-1.927c0.492-0.194,1.043-0.262,1.658-0.107c0.764,0.272,1.629,0.629,1.732,1.422
	C70.251,14.5,69.183,14.917,68.033,15.211 M55.224,11.122c-0.426,0.812-1.261,0.635-1.296,0.039
	c-0.038-0.558,0.246-0.798,0.49-0.851C54.89,10.298,55.292,10.991,55.224,11.122 M78.15,11.979
	c-0.137-0.079-0.502-0.176-0.979-0.059c-0.473,0.115-1.053,0.433-1.637,1.186c-0.434,0.544-1.355,1.636-2.303,2.564
	c-0.5,0.331-1.152,0.649-2.402,0.293c0.127-0.069,0.234-0.147,0.33-0.222c1.043-0.833,2.072-2.805,1.309-3.795
	c-0.74-0.945-2.053-1.501-3.389-1.072c-0.293,0.068-0.654,0.259-1.047,0.531c-1.582,1.114-3.686,3.503-4.227,4.326
	c-0.67,0.076-1.104-0.108-1.416-0.446v-0.013c-0.735-0.771-1.712-1.782-3.893-0.483c-1.624,0.988-2.811,2.597-5.083,5.804
	c-1.192,1.684-4.479,1.665-3.548-2.406c0.004-0.032,0.023-0.175,0.035-0.257c2.194-0.15,4.467-0.599,5.812-1.67
	c0.395-0.272,0.719-0.65,0.893-0.941c0.304-0.487,0.432-0.696,0.666-1.301c0.09-0.253,0.82-2.227-0.809-4.407
	c-0.197-0.272-0.884-1.258-1.725-1.071c-0.484,0.019-1.184,0.984-1.449,1.5c-0.448,0.864-1.168,2.875,0,3.3
	c0.275,0.099,0.686,0.15,0.998,0.131c1.195-0.061,1.357-0.628,1.613-1.49c0,0,0.289,0.397,0.373,1.053
	c0.082,0.696-0.051,1.074-0.051,1.074c-0.699,0.665-4.729,2.224-11.404,1.446c-2.13-0.366-1.012-3.997-0.608-5.025l-0.167-0.075
	c-1.696,3.663-2.238,6.021,0,6.992c0.572,0.334,2.975,0.637,5.546,0.502c-0.132,0.51-0.231,1.022-0.267,1.523v0.705
	c0.041,0.571,0.171,1.136,0.427,1.638c0.748,1.545,2.298,1.721,3.315,1.034c1.473-1.008,2.621-3.785,4.16-5.309
	c1.284-1.269,2.652-1.576,3.485-1.105c0.828,0.479,0.847,1.223,2.25,1.201c1.004,0.385,2.291,0.292,4.129-0.279
	c0.322-0.107,0.654-0.194,0.943-0.272C68.8,16.88,69.4,16.764,69.4,16.764s0.24,1.278,1.77,1.201
	c1.139-0.061,2.029-0.635,2.52-1.532c0.326-0.471,1.07-1.278,1.092-1.278c0,0.083,0.266,0.254,0.342,0.332
	c0.344,0.348,1.236,1.18,2.049,1.559c0.471,0.219,0.898,0.287,1.176,0.024C79.494,16.008,79.601,12.827,78.15,11.979 M55.582,5.75
	c-0.718-0.461-1.251-0.892-2.034-1.341l-1.211,1.82c0.689,0.558,1.975,1.305,2.085,1.364C54.422,7.593,55.621,5.874,55.582,5.75"/>
<path fill="#717271" d="M54.131,132.278c-0.03-0.08-0.045-0.197-0.045-0.344v-0.176l-0.017-2.477
	c-0.052,0.051-0.115,0.09-0.181,0.104c-0.067,0.008-0.155,0.014-0.258,0.014l-0.415,0.02c0.109,0.066,0.182,0.133,0.212,0.219
	c0.028,0.08,0.044,0.193,0.044,0.336v1.938c0,0.189-0.021,0.324-0.062,0.404c-0.043,0.078-0.109,0.145-0.193,0.199l1.13-0.02
	C54.229,132.43,54.157,132.36,54.131,132.278 M52.528,131.918c-0.031-0.127-0.053-0.311-0.053-0.557v-1.016
	c0-0.385-0.109-0.648-0.335-0.801c-0.226-0.154-0.545-0.227-0.957-0.227l-0.442,0.037l-0.457,0.617
	c0.209-0.07,0.373-0.129,0.504-0.162c0.129-0.029,0.268-0.051,0.422-0.051c0.164,0,0.311,0.039,0.453,0.113
	c0.133,0.07,0.207,0.178,0.207,0.32c0,0.195-0.237,0.348-0.717,0.457c-0.477,0.111-0.816,0.213-1.015,0.297
	c-0.203,0.088-0.303,0.309-0.303,0.666c0,0.283,0.106,0.52,0.325,0.711c0.215,0.188,0.496,0.283,0.836,0.283
	c0.108,0,0.224-0.012,0.353-0.033l0.399-0.52c-0.159,0.051-0.262,0.078-0.312,0.094c-0.045,0.008-0.104,0.012-0.179,0.012
	c-0.209,0-0.389-0.043-0.527-0.133c-0.146-0.086-0.215-0.23-0.215-0.428c0-0.186,0.057-0.314,0.171-0.383
	c0.115-0.07,0.269-0.123,0.464-0.174c0.196-0.043,0.342-0.08,0.438-0.111c0.098-0.027,0.188-0.064,0.28-0.107v1.074
	c0,0.256,0.082,0.434,0.252,0.549c0.168,0.107,0.383,0.16,0.639,0.16l0.293-0.447C52.741,132.125,52.565,132.043,52.528,131.918
	 M57.872,132.278c-0.029-0.08-0.047-0.193-0.047-0.336v-1.15c0-0.176-0.002-0.348-0.014-0.531c-0.011-0.184-0.062-0.346-0.164-0.496
	c-0.103-0.143-0.244-0.256-0.425-0.33c-0.185-0.078-0.382-0.115-0.594-0.115c-0.206,0-0.388,0.043-0.54,0.133
	c-0.156,0.088-0.293,0.217-0.412,0.381l-0.016-0.514c-0.061,0.002-0.129,0.008-0.203,0.008h-0.252l-0.403,0.098
	c0.114,0.062,0.188,0.135,0.215,0.219c0.03,0.082,0.047,0.191,0.047,0.344v1.926c0,0.188-0.024,0.324-0.069,0.402
	c-0.041,0.078-0.106,0.145-0.192,0.199l1.13-0.02c-0.111-0.064-0.186-0.135-0.215-0.217c-0.028-0.08-0.041-0.193-0.041-0.336v-1.369
	c0-0.244,0.05-0.436,0.145-0.586c0.099-0.148,0.291-0.227,0.572-0.227c0.303,0,0.516,0.092,0.637,0.271
	c0.121,0.178,0.186,0.453,0.186,0.826v1.061c0,0.152-0.016,0.273-0.045,0.359c-0.026,0.084-0.1,0.166-0.213,0.236l1.128-0.02
	C57.971,132.43,57.898,132.36,57.872,132.278 M53.756,128.989c0.116,0,0.214-0.045,0.294-0.129c0.072-0.088,0.109-0.184,0.109-0.297
	c0-0.123-0.037-0.221-0.109-0.301c-0.08-0.076-0.178-0.125-0.294-0.125c-0.115,0-0.214,0.041-0.306,0.113
	c-0.086,0.078-0.129,0.176-0.129,0.289c0,0.125,0.041,0.232,0.125,0.32C53.532,128.944,53.635,128.989,53.756,128.989
	 M39.405,131.815c-0.184,0.145-0.419,0.217-0.692,0.217c-0.065,0-0.11,0-0.141-0.004l-0.589-0.057v-1.676l0.474-0.027
	c0.334,0,0.623,0.078,0.866,0.227c0.243,0.15,0.364,0.377,0.364,0.686C39.687,131.459,39.595,131.668,39.405,131.815 M37.983,128.54
	l0.453-0.045h0.08c0.206,0,0.384,0.057,0.536,0.174c0.146,0.121,0.225,0.279,0.225,0.48c0,0.244-0.11,0.422-0.329,0.527
	c-0.219,0.105-0.466,0.156-0.742,0.156h-0.223V128.54z M39.341,129.92c0.215-0.094,0.38-0.209,0.498-0.346
	c0.119-0.139,0.175-0.314,0.175-0.529c0-0.301-0.121-0.539-0.373-0.715c-0.255-0.174-0.598-0.258-1.038-0.258l-1.605,0.018
	c0.12,0.045,0.193,0.131,0.233,0.256c0.039,0.125,0.058,0.279,0.058,0.459v2.934c0,0.195-0.019,0.357-0.058,0.49
	c-0.04,0.139-0.113,0.23-0.233,0.285h1.113c0.371,0,0.663-0.008,0.884-0.029c0.218-0.021,0.439-0.086,0.658-0.191
	c0.216-0.105,0.405-0.266,0.558-0.48c0.15-0.215,0.228-0.447,0.228-0.697c0-0.312-0.104-0.574-0.308-0.783
	C39.923,130.125,39.659,129.989,39.341,129.92 M49.021,129.459c-0.143,0.092-0.252,0.217-0.332,0.373l-0.02-0.514
	c-0.041,0.002-0.098,0.008-0.168,0.008H48.26l-0.433,0.098c0.108,0.062,0.177,0.135,0.207,0.209
	c0.029,0.076,0.041,0.182,0.041,0.318v1.959c0,0.189-0.02,0.324-0.062,0.404c-0.043,0.078-0.11,0.145-0.194,0.199l1.131-0.02
	c-0.113-0.064-0.182-0.135-0.215-0.217c-0.031-0.08-0.047-0.193-0.047-0.342v-1.111c0-0.35,0.059-0.594,0.174-0.744
	c0.114-0.146,0.305-0.221,0.562-0.221c0.144,0,0.241,0.029,0.313,0.092v-0.625l-0.248-0.008
	C49.317,129.319,49.161,129.366,49.021,129.459 M47.169,132.278c-0.028-0.08-0.043-0.197-0.043-0.342v-1.402
	c0-0.371-0.088-0.67-0.254-0.891c-0.17-0.219-0.469-0.324-0.901-0.324c-0.179,0-0.367,0.037-0.56,0.109
	c-0.199,0.07-0.342,0.178-0.441,0.312l-0.01-1.797c-0.037,0.057-0.096,0.094-0.157,0.105c-0.065,0.016-0.151,0.023-0.257,0.023
	l-0.444,0.018c0.116,0.066,0.188,0.135,0.216,0.219c0.028,0.076,0.047,0.193,0.047,0.342v3.262c0,0.188-0.024,0.324-0.065,0.402
	c-0.046,0.078-0.109,0.145-0.197,0.199l1.134-0.02c-0.115-0.064-0.187-0.135-0.216-0.217c-0.032-0.08-0.05-0.197-0.05-0.342v-1.24
	c0-0.316,0.062-0.551,0.18-0.703c0.118-0.154,0.318-0.232,0.604-0.232c0.275,0,0.473,0.092,0.587,0.264
	c0.116,0.176,0.174,0.412,0.174,0.713v1.246c0,0.129-0.017,0.232-0.046,0.312c-0.03,0.078-0.1,0.152-0.203,0.219l1.121-0.02
	C47.269,132.43,47.198,132.36,47.169,132.278 M43.452,131.918c-0.032-0.127-0.051-0.311-0.051-0.557v-1.016
	c0-0.385-0.109-0.648-0.334-0.801c-0.229-0.154-0.548-0.227-0.961-0.227l-0.44,0.037l-0.455,0.617
	c0.202-0.07,0.368-0.129,0.503-0.162c0.128-0.029,0.271-0.051,0.425-0.051c0.159,0,0.308,0.039,0.442,0.113
	c0.141,0.07,0.211,0.178,0.211,0.32c0,0.195-0.239,0.348-0.713,0.457c-0.478,0.111-0.818,0.213-1.019,0.297
	c-0.202,0.088-0.302,0.309-0.302,0.666c0,0.283,0.108,0.52,0.327,0.711c0.217,0.188,0.494,0.283,0.837,0.283
	c0.107,0,0.223-0.012,0.351-0.033l0.401-0.52c-0.157,0.051-0.262,0.078-0.31,0.094c-0.045,0.008-0.108,0.012-0.177,0.012
	c-0.211,0-0.389-0.043-0.531-0.133c-0.144-0.086-0.215-0.23-0.215-0.428c0-0.186,0.056-0.314,0.171-0.383
	c0.111-0.07,0.265-0.123,0.463-0.174c0.196-0.043,0.344-0.08,0.442-0.111c0.097-0.027,0.188-0.064,0.275-0.107v1.074
	c0,0.256,0.084,0.434,0.254,0.549c0.168,0.107,0.383,0.16,0.639,0.16l0.295-0.447C43.663,132.125,43.487,132.043,43.452,131.918"/>
<path fill="#717271" d="M66.8,133.03c-0.156-0.146-0.24-0.221-0.252-0.221c-0.26,0.322-0.385,0.475-0.375,0.451
	c-0.299-0.301-0.459-0.451-0.473-0.451c-0.211,0.256-0.371,0.453-0.486,0.586v0.018c0.215,0.215,0.396,0.395,0.543,0.545
	c0.023-0.043,0.086-0.131,0.188-0.258c0.102-0.131,0.166-0.197,0.197-0.205c0.211,0.184,0.359,0.332,0.451,0.426
	c0.219-0.256,0.383-0.449,0.488-0.582c0.018-0.02,0.018-0.035,0-0.055C67.048,133.262,66.955,133.176,66.8,133.03 M66.658,129.264
	l-0.406,0.875c0.16,0.299,0.277,0.711,0.354,1.229h-2.422c-0.172,0-0.285-0.062-0.346-0.195c-0.098-0.408-0.229-0.746-0.395-1.01
	l-0.029-0.014c-0.164,0.275-0.348,0.537-0.531,0.795c0.287,0.568,0.439,1.01,0.463,1.328c-0.523,0.459-1.141,0.689-1.862,0.689
	c-0.145,0-0.295-0.012-0.439-0.035c-0.472-0.061-0.812-0.195-1.025-0.402c-0.211-0.209-0.316-0.467-0.316-0.783
	c0-0.137,0.025-0.275,0.076-0.404c0.223-0.404,0.47-0.734,0.736-0.99c0.007-0.012,0.021-0.031,0.047-0.062
	c0.027-0.031,0.033-0.061,0.029-0.082c-0.028-0.047-0.064-0.068-0.114-0.068c-0.063,0-0.136,0.037-0.224,0.113
	c-0.592,0.508-0.908,1.066-0.963,1.682c-0.03,0.418,0.068,0.789,0.301,1.113c0.23,0.322,0.547,0.523,0.948,0.604
	c0.223,0.047,0.443,0.07,0.674,0.07c0.805,0,1.541-0.258,2.201-0.77v-0.006c0.162-0.156,0.287-0.334,0.369-0.547
	c0.08-0.186,0.104-0.336,0.088-0.453l0.008-0.023l0.223,0.129c0.227,0.006,0.582,0.006,1.07,0h1.682l0.061-0.031
	c0.15-0.197,0.242-0.418,0.271-0.676c0.023-0.621-0.137-1.318-0.482-2.084C66.689,129.241,66.675,129.243,66.658,129.264
	 M82.968,128.549c0.109-0.201,0.162-0.352,0.162-0.439c0-0.031,0-0.061-0.006-0.088c-0.092,0.006-0.201-0.043-0.318-0.154
	c-0.096-0.117-0.146-0.252-0.146-0.406c0-0.102,0.023-0.203,0.059-0.305c-0.139,0.119-0.244,0.217-0.309,0.287
	c-0.162,0.25-0.238,0.5-0.238,0.75c0,0.172,0.039,0.32,0.125,0.445c0.273,1.326,0.432,2.234,0.477,2.729
	c-0.195,0.01-0.498,0.01-0.896,0h-0.857c-0.154,0-0.275-0.102-0.373-0.312c-0.031-0.07-0.049-0.145-0.049-0.229
	c0-0.08,0.02-0.197,0.064-0.35c0.041-0.154,0.066-0.268,0.072-0.34c-0.021-0.029-0.039-0.051-0.062-0.061
	c-0.064,0.033-0.121,0.115-0.184,0.246c-0.082,0.244-0.201,0.594-0.359,1.045h-3.293c-0.111,0-0.162-0.086-0.162-0.26
	c0-0.07,0.008-0.115,0.025-0.15c0.213-0.078,0.441-0.133,0.689-0.172c0.172-0.027,0.307-0.043,0.395-0.051l0.23-0.488
	c0-0.004,0.01-0.023,0.027-0.053c0.016-0.014,0.016-0.029,0-0.043c-0.549,0.035-1.129-0.047-1.734-0.246
	c-0.137-0.049-0.273-0.096-0.406-0.145c-0.168-0.055-0.305-0.082-0.42-0.082c-0.184,0-0.367,0.043-0.541,0.137
	c-0.119,0.059-0.238,0.16-0.357,0.314c-0.092,0.131-0.182,0.264-0.279,0.395l-0.104,0.262c-0.014,0.02,0,0.029,0.033,0.029
	l0.135-0.182c0.156-0.203,0.41-0.299,0.77-0.287c0.371,0.111,0.646,0.201,0.83,0.256v0.014c-0.143,0.055-0.379,0.189-0.715,0.414
	c-0.285,0.193-0.535,0.307-0.736,0.338h-4.291v0.006c-0.316,0.006-0.631,0.006-0.949-0.006c-0.109-0.33-0.258-0.609-0.451-0.842
	c-0.076-0.096-0.229-0.236-0.445-0.418c-0.184,0.418-0.281,0.656-0.293,0.707c0.379,0.258,0.668,0.607,0.869,1.047
	c-0.055,0.166-0.121,0.322-0.205,0.471c-0.42,0.697-0.9,1.115-1.438,1.244v0.01c0.074,0.035,0.137,0.057,0.184,0.066
	c0.23,0.062,0.43,0.094,0.615,0.094c0.215,0,0.387-0.045,0.52-0.135c0.387-0.26,0.641-0.775,0.754-1.543
	c0.254-0.016,0.617-0.023,1.086-0.023h2.818v-0.008c0.09,0.002,0.219,0.002,0.391,0.008c0.223,0.006,0.404,0.002,0.545-0.01
	c0.193-0.004,0.369-0.021,0.527-0.061c0.211-0.041,0.469-0.18,0.783-0.412c0.338-0.244,0.594-0.398,0.771-0.453l0.006,0.006
	c-0.033,0.15-0.059,0.281-0.068,0.396c-0.031,0.355,0.188,0.533,0.652,0.533h3.07c0.055-0.014,0.105-0.051,0.146-0.119
	c0.064-0.104,0.102-0.156,0.111-0.162c0.07,0.158,0.168,0.252,0.297,0.281h2.453c0.201-0.197,0.297-0.457,0.297-0.775
	c-0.107-0.891-0.252-1.748-0.434-2.574L82.968,128.549z M84.689,128.813l-0.16-1.516l-0.041-0.031
	c-0.277,0.441-0.443,0.709-0.49,0.807c0.189,1.033,0.283,1.998,0.283,2.891c0,0.375-0.018,0.738-0.049,1.088
	c0.006,0.023,0.004,0.059-0.008,0.107s-0.006,0.082,0.02,0.094c0.137-0.119,0.248-0.281,0.336-0.482
	c0.045-0.105,0.105-0.299,0.178-0.568c0.025-0.238,0.033-0.49,0.033-0.764C84.791,129.973,84.757,129.434,84.689,128.813
	 M79.269,133.088v0.023c0.234,0.238,0.412,0.418,0.543,0.539c0.209-0.215,0.387-0.395,0.531-0.555
	c-0.377-0.371-0.57-0.559-0.59-0.559C79.574,132.741,79.412,132.924,79.269,133.088 M62.1,128.95
	c0.154-0.184,0.232-0.283,0.232-0.303l-0.561-0.553c-0.019,0-0.105,0.09-0.263,0.271c-0.16,0.178-0.241,0.283-0.241,0.32
	l0.561,0.551C61.857,129.229,61.946,129.133,62.1,128.95"/>
<path fill="#717271" d="M47.774,113.709h-0.665v6.746h3.373v-0.572h-2.708V113.709z M72.181,119.647l-2.467-5.938h-1.033v6.746h0.67
	v-6.076h0.02l2.533,6.076h0.572l2.455-6.076h0.018v6.076h0.668v-6.746h-0.961L72.181,119.647z M56.593,118.071l1.467-3.725
	l1.459,3.725H56.593z M57.735,113.709l-2.766,6.746h0.641l0.73-1.807h3.401l0.72,1.807h0.7l-2.675-6.746H57.735z M111.326,116.887
	l3.268-3.178h-0.867l-3.041,3.023v-3.023h-0.66v6.746h0.66v-3.373l3.268,3.373h0.92L111.326,116.887z M83.89,119.883h-0.699v-2.646
	h0.59c0.99,0,2.023,0.125,2.023,1.324C85.804,119.639,84.789,119.883,83.89,119.883 M83.21,114.29h0.918
	c0.572,0,1.473,0.137,1.473,1.115c0,1.066-0.938,1.258-1.643,1.258H83.21V114.29z M85.039,116.934v-0.025
	c0.83-0.162,1.227-0.678,1.227-1.537c0-1.293-1.031-1.662-2.137-1.662h-1.598v6.746h1.338c1.402,0,2.598-0.455,2.598-1.926
	C86.466,117.647,85.886,117.083,85.039,116.934 M104.986,119.647h-0.021l-3.428-5.938h-0.842v6.746h0.666v-5.82h0.016l3.375,5.82
	h0.9v-6.746h-0.666V119.647z M92.007,118.071l1.469-3.725l1.463,3.725H92.007z M93.148,113.709l-2.766,6.746h0.648l0.721-1.807
	h3.408l0.719,1.807h0.703l-2.678-6.746H93.148z M8.539,118.071l1.468-3.725l1.459,3.725H8.539z M9.676,113.709l-2.763,6.746H7.56
	l0.725-1.807h3.404l0.725,1.807h0.696l-2.68-6.746H9.676z M29.152,115.399c0-0.846,0.761-1.121,1.461-1.121
	c0.456,0,0.924,0.084,1.226,0.238l0.11-0.582c-0.465-0.172-0.998-0.217-1.327-0.217c-1.19,0-2.136,0.652-2.136,1.695
	c0,1.713,3.094,1.875,3.094,3.148c0,0.924-0.687,1.336-1.518,1.336c-0.63,0-1.093-0.141-1.489-0.385l-0.071,0.662
	c0.357,0.15,0.874,0.281,1.529,0.281c1.044,0,2.219-0.521,2.219-1.84C32.25,116.715,29.152,116.706,29.152,115.399 M38.384,118.071
	l1.467-3.725l1.464,3.725H38.384z M39.52,113.709l-2.762,6.746h0.646l0.733-1.807h3.399l0.725,1.807h0.695l-2.675-6.746H39.52z
	 M18.717,113.709h-0.67v6.746h3.373v-0.572h-2.703V113.709z"/>
</svg>
